<svg y="583.665" x="988.5" version="1.1" width="355" height="52" viewBox="0 0 355 52" id="svg548019" xmlns:xlink="http://www.w3.org/1999/xlink" xmlns="http://www.w3.org/2000/svg" xmlns:svg="http://www.w3.org/2000/svg" xmlns:rdf="http://www.w3.org/1999/02/22-rdf-syntax-ns#" xmlns:cc="http://creativecommons.org/ns#" xmlns:dc="http://purl.org/dc/elements/1.1/">
 <metadata id="metadata548025">image/svg+xml</metadata>

 <linearGradient id="3d_gradient2-logo-be9fcf93-76f3-4195-b816-3f382377cd48" x1="30%" y1="120%" x2="-10%" y2="30%" spreadMethod="pad">
  <stop offset="0%" stop-color="#ffffff" id="stop548000"/>
  <stop offset="100%" stop-color="#000000" id="stop548002"/>
 </linearGradient>
 <linearGradient id="3d_gradient3-logo-be9fcf93-76f3-4195-b816-3f382377cd48" x1="30%" y1="120%" x2="-10%" y2="30%" spreadMethod="pad" gradientTransform="rotate(-30)">
  <stop offset="0%" stop-color="#ffffff" id="stop548005"/>
  <stop offset="50%" stop-color="#cccccc" id="stop548007"/>
  <stop offset="100%" stop-color="#000000" id="stop548009"/>
 </linearGradient>
 <g id="logo-group">
  <g id="logo-center">
   <image width="0" height="0" y="-358.18518" x="-334.31345" id="icon_container"/>
   <g text-anchor="middle" font-family="Raleway" font-size="32px" font-weight="600" font-style="normal" transform="translate(0 0)" id="slogan"/>
   <g text-anchor="middle" font-family="'Comfortaa Bold Alt1'" font-size="72px" font-weight="700" font-style="normal" transform="translate(0 0)" id="title">
    <path transform="translate(-334.313 -358.185) translate(0 303.118)" stroke="#5e636e" fill="#5e636e" stroke-miterlimit="2" stroke-width="0" d="m335.23071,56.05016c-0.6552,0.6552 -0.91727,1.44144 -0.91727,2.35872l0,35.77392c0,2.35872 0.39311,4.45536 1.24488,6.28992c0.78623,1.83456 1.96559,3.276 3.47255,4.32432c1.50696,1.04832 3.21048,1.50696 5.11056,1.50696l0.13104,0c1.3104,0 2.35873,-0.26208 3.21048,-0.91728c0.78624,-0.58968 1.24488,-1.37592 1.24488,-2.35872c0,-0.91728 -0.3276,-1.70352 -0.85175,-2.35872c-0.52417,-0.58968 -1.24488,-0.91728 -2.09665,-0.91728l-1.638,0c-0.9828,0 -1.76903,-0.52416 -2.35872,-1.57248c-0.65519,-1.04832 -0.91728,-2.35872 -0.91728,-3.99672l0,-35.77392c0,-0.91728 -0.3276,-1.70352 -0.91728,-2.35872c-0.6552,-0.58968 -1.44143,-0.91728 -2.35872,-0.91728c-0.9828,0 -1.76903,0.3276 -2.35872,0.91728z" id="path548028"/>
    <path transform="translate(-334.313 -358.185) translate(0 303.118)" stroke="#676b76" fill="#676b76" stroke-miterlimit="2" stroke-width="0" d="m394.59209,102.96248l0,-29.22192c0,-0.9828 -0.32761,-1.76904 -0.91729,-2.42424c-0.65519,-0.58968 -1.44144,-0.91728 -2.42424,-0.91728c-0.98279,0 -1.76904,0.3276 -2.42424,0.91728c-0.6552,0.6552 -0.91728,1.44144 -0.91728,2.42424l0,18.47664c0,1.638 -0.45864,3.01392 -1.31039,4.2588c-0.85177,1.3104 -2.03113,2.2932 -3.53809,3.01392c-1.50696,0.78624 -3.21048,1.11384 -4.97951,1.11384c-3.21049,0 -5.70025,-0.85176 -7.60033,-2.68632c-1.90007,-1.83456 -2.81736,-4.52088 -2.81736,-8.05896l0,-16.11792c0,-0.91728 -0.32759,-1.70352 -0.9828,-2.35872c-0.6552,-0.6552 -1.44144,-0.9828 -2.35871,-0.9828c-0.98281,0 -1.76905,0.3276 -2.42424,0.9828c-0.65521,0.6552 -0.91729,1.44144 -0.91729,2.35872l0,16.11792c0,3.6036 0.65521,6.61752 2.03113,9.10728c1.3104,2.48976 3.21047,4.45536 5.63472,5.70024c2.29319,1.3104 4.78295,1.9656 7.53479,2.03112c0.13104,0 5.17608,0 15.33168,0c0.85176,0 1.57249,-0.3276 2.16216,-0.91728c0.58968,-0.58968 0.91729,-1.3104 0.91729,-2.22768l0,-0.58968z" id="path548030"/>
    <path transform="translate(-334.313 -358.185) translate(0 303.118)" stroke="#6f747e" fill="#6f747e" stroke-miterlimit="2" stroke-width="0" d="m438.92067,103.55216c0,-0.85176 -0.3276,-1.638 -0.91727,-2.2932l-10.41769,-12.4488l9.89352,-12.90744c0.58969,-0.78624 0.91729,-1.638 0.91729,-2.6208c0,-0.78624 -0.26208,-1.44144 -0.78625,-1.9656c-0.52416,-0.52416 -1.17936,-0.85176 -2.03111,-0.85176c-1.04833,0 -1.90009,0.39312 -2.42425,1.11384l-9.63144,12.84192l-10.74528,-12.84192c-0.65519,-0.72072 -1.44144,-1.11384 -2.48976,-1.11384c-0.91727,0 -1.638,0.26208 -2.16215,0.78624c-0.52417,0.52416 -0.72073,1.17936 -0.72073,1.90008c0,0.91728 0.3276,1.70352 0.9828,2.48976l10.81081,12.7764l-10.15561,12.71088c-0.6552,0.78624 -0.91727,1.57248 -0.91727,2.42424c0,0.78624 0.19656,1.44144 0.72071,1.9656c0.52417,0.52416 1.17936,0.78624 2.09665,0.78624c0.91727,0 1.70351,-0.3276 2.35871,-1.04832l9.89353,-12.4488l10.41767,12.4488c0.52417,0.72072 1.3104,1.04832 2.35872,1.04832c0.85177,0 1.57248,-0.26208 2.09665,-0.78624c0.52415,-0.52416 0.85175,-1.17936 0.85175,-1.9656z" id="path548032"/>
    <path transform="translate(-334.313 -358.185) translate(0 303.118)" stroke="#787c86" fill="#787c86" stroke-miterlimit="2" stroke-width="0" d="m468.50729,86.05832c-0.6552,-0.6552 -1.44144,-0.9828 -2.35872,-0.9828l-14.61096,0c-0.98279,0 -1.76904,0.3276 -2.42423,0.9828c-0.65521,0.6552 -0.91729,1.44144 -0.91729,2.35872c0,0.9828 0.26208,1.76904 0.91729,2.35872c0.65519,0.6552 1.44144,0.91728 2.42423,0.91728l14.61096,0c0.91728,0 1.70352,-0.26208 2.35872,-0.91728c0.58968,-0.58968 0.91729,-1.37592 0.91729,-2.35872c0,-0.91728 -0.32761,-1.70352 -0.91729,-2.35872z" id="path548034"/>
    <path transform="translate(-334.313 -358.185) translate(0 303.118)" stroke="#80848e" fill="#80848e" stroke-miterlimit="2" stroke-width="0" d="m515.27856,77.86832c-1.37591,-2.48976 -3.27599,-4.45536 -5.63471,-5.76576c-2.29321,-1.17936 -4.78297,-1.83456 -7.53481,-1.90008c-0.06552,0 -0.19656,-0.06552 -0.19656,-0.06552l-15.0696,0c-0.91728,0 -1.63799,0.3276 -2.22768,0.91728c-0.6552,0.6552 -0.91727,1.37592 -0.91727,2.22768c0,0.06552 0,0.19656 0,0.26208c0,0.13104 0,0.19656 0,0.26208l0,29.22192c0,0.9828 0.26207,1.76904 0.91727,2.42424c0.65521,0.6552 1.44144,0.91728 2.42424,0.91728c0.9828,0 1.76904,-0.26208 2.42424,-0.91728c0.58968,-0.6552 0.91728,-1.44144 0.91728,-2.42424l0,-18.47664c0,-1.57248 0.39312,-2.9484 1.24488,-4.2588c0.85176,-1.24488 2.03112,-2.22768 3.53808,-3.01392c1.50696,-0.72072 3.21048,-1.11384 5.04505,-1.11384c3.14495,0 5.63471,0.91728 7.53479,2.75184c1.90009,1.83456 2.88288,4.52088 2.88288,7.99344l0,16.11792c0,0.9828 0.26209,1.76904 0.91729,2.42424c0.65519,0.6552 1.44143,0.91728 2.42424,0.91728c0.91727,0 1.70351,-0.26208 2.35872,-0.91728c0.6552,-0.6552 0.98279,-1.44144 0.98279,-2.42424l0,-16.11792c0,-3.53808 -0.72071,-6.552 -2.03112,-9.04176z" id="path548036"/>
    <path transform="translate(-334.313 -358.185) translate(0 303.118)" stroke="#898c96" fill="#898c96" stroke-miterlimit="2" stroke-width="0" d="m567.62007,102.96248l0,-29.22192c0,-0.9828 -0.3276,-1.76904 -0.91728,-2.42424c-0.6552,-0.58968 -1.44144,-0.91728 -2.42424,-0.91728c-0.9828,0 -1.76904,0.3276 -2.42424,0.91728c-0.6552,0.6552 -0.91728,1.44144 -0.91728,2.42424l0,18.47664c0,1.638 -0.45864,3.01392 -1.3104,4.2588c-0.85176,1.3104 -2.03112,2.2932 -3.53808,3.01392c-1.50696,0.78624 -3.21048,1.11384 -4.97952,1.11384c-3.21048,0 -5.70024,-0.85176 -7.60032,-2.68632c-1.90008,-1.83456 -2.81736,-4.52088 -2.81736,-8.05896l0,-16.11792c0,-0.91728 -0.3276,-1.70352 -0.9828,-2.35872c-0.6552,-0.6552 -1.44144,-0.9828 -2.35872,-0.9828c-0.9828,0 -1.76904,0.3276 -2.42424,0.9828c-0.6552,0.6552 -0.91728,1.44144 -0.91728,2.35872l0,16.11792c0,3.6036 0.6552,6.61752 2.03112,9.10728c1.3104,2.48976 3.21048,4.45536 5.63472,5.70024c2.2932,1.3104 4.78296,1.9656 7.5348,2.03112c0.13104,0 5.17608,0 15.33168,0c0.85176,0 1.57248,-0.3276 2.16216,-0.91728c0.58968,-0.58968 0.91728,-1.3104 0.91728,-2.22768l0,-0.58968z" id="path548038"/>
    <path transform="translate(-334.313 -358.185) translate(0 303.118)" stroke="#91959e" fill="#91959e" stroke-miterlimit="2" stroke-width="0" d="m611.94863,103.55216c0,-0.85176 -0.3276,-1.638 -0.91728,-2.2932l-10.41768,-12.4488l9.89352,-12.90744c0.58968,-0.78624 0.91728,-1.638 0.91728,-2.6208c0,-0.78624 -0.26208,-1.44144 -0.78624,-1.9656c-0.52416,-0.52416 -1.17936,-0.85176 -2.03112,-0.85176c-1.04832,0 -1.90008,0.39312 -2.42424,1.11384l-9.63144,12.84192l-10.74528,-12.84192c-0.6552,-0.72072 -1.44144,-1.11384 -2.48976,-1.11384c-0.91728,0 -1.638,0.26208 -2.16216,0.78624c-0.52416,0.52416 -0.72072,1.17936 -0.72072,1.90008c0,0.91728 0.3276,1.70352 0.9828,2.48976l10.8108,12.7764l-10.1556,12.71088c-0.6552,0.78624 -0.91728,1.57248 -0.91728,2.42424c0,0.78624 0.19656,1.44144 0.72072,1.9656c0.52416,0.52416 1.17936,0.78624 2.09664,0.78624c0.91728,0 1.70352,-0.3276 2.35872,-1.04832l9.89352,-12.4488l10.41768,12.4488c0.52416,0.72072 1.3104,1.04832 2.35872,1.04832c0.85176,0 1.57248,-0.26208 2.09664,-0.78624c0.52416,-0.52416 0.85176,-1.17936 0.85176,-1.9656z" id="path548040"/>
    <path transform="translate(-334.313 -358.185) translate(0 303.118)" stroke="#9a9da6" fill="#9a9da6" stroke-miterlimit="2" stroke-width="0" d="m628.18861,71.77496l0,5.63472l0,16.18344c0,2.42424 0.45864,4.5864 1.50697,6.48648c0.98279,1.9656 2.35872,3.47256 4.12775,4.5864c1.76905,1.11384 3.73465,1.638 5.8968,1.638l1.17937,0c1.11383,0 2.03112,-0.26208 2.75184,-0.91728c0.72071,-0.58968 1.11383,-1.37592 1.11383,-2.35872c0,-0.91728 -0.3276,-1.70352 -0.85176,-2.35872c-0.52415,-0.58968 -1.17936,-0.91728 -1.9656,-0.91728l-2.22768,0c-1.44143,0 -2.6208,-0.58968 -3.53808,-1.76904c-0.98279,-1.17936 -1.44143,-2.6208 -1.44143,-4.38984l0,-16.18344l5.5692,0c0.91727,0 1.63799,-0.26208 2.22767,-0.78624c0.52417,-0.52416 0.85177,-1.17936 0.85177,-1.9656c0,-0.85176 -0.3276,-1.57248 -0.85177,-2.09664c-0.58968,-0.52416 -1.3104,-0.78624 -2.22767,-0.78624l-5.5692,0l0,-9.43488c0,-0.91728 -0.32761,-1.70352 -0.91729,-2.35872c-0.6552,-0.58968 -1.44143,-0.91728 -2.35872,-0.91728c-0.9828,0 -1.76903,0.3276 -2.35872,0.91728c-0.6552,0.6552 -0.91728,1.44144 -0.91728,2.35872l0,9.43488z" id="path548042"/>
    <path transform="translate(-334.313 -358.185) translate(0 303.118)" stroke="#a2a5ae" fill="#a2a5ae" stroke-miterlimit="2" stroke-width="0" d="m680.90685,56.77088c-2.09664,-1.11384 -4.45536,-1.70352 -6.94512,-1.70352c-2.81736,0 -5.37264,0.58968 -7.60032,1.76904c-2.2932,1.17936 -4.06224,2.75184 -5.37264,4.78296c-1.3104,2.03112 -1.9656,4.2588 -1.9656,6.74856c0,0.9828 0.26208,1.76904 0.85176,2.42424c0.52416,0.6552 1.24488,0.91728 2.16216,0.91728c0.85176,0 1.57248,-0.3276 2.16216,-0.9828c0.52416,-0.6552 0.85176,-1.50696 0.85176,-2.55528c0,-1.3104 0.39312,-2.55528 1.17936,-3.66912c0.78624,-1.04832 1.90008,-1.9656 3.276,-2.6208c1.37592,-0.6552 2.88288,-0.9828 4.5864,-0.9828c2.16216,0 3.9312,0.6552 5.37264,1.9656c1.37592,1.3104 2.09664,2.9484 2.09664,4.84848c0,1.3104 -0.39312,2.55528 -1.11384,3.6036c-0.72072,1.11384 -1.638,1.9656 -2.81736,2.6208c-1.17936,0.6552 -2.35872,0.91728 -3.53808,0.91728c-0.9828,0 -1.76904,0.3276 -2.42424,0.9828c-0.6552,0.6552 -0.91728,1.44144 -0.91728,2.35872c0,0.9828 0.26208,1.76904 0.91728,2.42424c0.6552,0.6552 1.44144,0.9828 2.42424,0.9828c1.638,0 3.14496,0.45864 4.52088,1.3104c1.37592,0.85176 2.48976,2.03112 3.276,3.53808c0.78624,1.50696 1.17936,3.14496 1.17936,4.914c0,2.88288 -0.91728,5.11056 -2.6208,6.68304c-1.76904,1.638 -4.12776,2.42424 -7.01064,2.42424c-1.9656,0 -3.73464,-0.39312 -5.30712,-1.3104c-1.57248,-0.91728 -2.81736,-2.09664 -3.73464,-3.6036c-0.91728,-1.50696 -1.37592,-3.14496 -1.37592,-4.97952c0,-0.91728 -0.3276,-1.76904 -0.85176,-2.42424c-0.58968,-0.6552 -1.3104,-0.9828 -2.16216,-0.9828c-0.91728,0 -1.638,0.3276 -2.16216,0.9828c-0.58968,0.6552 -0.85176,1.50696 -0.85176,2.42424c0,3.01392 0.72072,5.70024 2.16216,8.05896c1.44144,2.35872 3.40704,4.2588 5.96232,5.63472c2.55528,1.37592 5.43816,2.03112 8.71416,2.03112c2.81736,0 5.43816,-0.58968 7.8624,-1.90008c2.42424,-1.3104 4.38984,-3.07944 5.83128,-5.37264c1.44144,-2.22768 2.16216,-4.78296 2.16216,-7.60032c0,-3.14496 -0.85176,-5.8968 -2.42424,-8.25552c-1.638,-2.35872 -4.12776,-4.06224 -7.40376,-5.2416c2.22768,-0.9828 4.06224,-2.35872 5.5692,-4.06224c1.44144,-1.70352 2.22768,-3.80016 2.22768,-6.15888c0,-2.35872 -0.6552,-4.45536 -1.83456,-6.42096c-1.17936,-1.90008 -2.81736,-3.40704 -4.914,-4.52088z" id="path548044"/>
   </g>
   <image width="0" height="0" y="-358.18518" x="-334.31345" id="icon"/>
  </g>
 </g>
</svg>